<svg xmlns="http://www.w3.org/2000/svg" xmlns:xlink="http://www.w3.org/1999/xlink" width="500" zoomAndPan="magnify" viewBox="0 0 375 149.999998" height="200" preserveAspectRatio="xMidYMid meet" version="1.0"><defs><g/><clipPath id="ff2f6c5760"><path d="M 264.359375 51.480469 L 298.859375 51.480469 L 298.859375 119.730469 L 264.359375 119.730469 Z M 264.359375 51.480469 " clip-rule="nonzero"/></clipPath><clipPath id="ef1239eb7b"><path d="M 264.359375 51.480469 L 285 51.480469 L 285 119.730469 L 264.359375 119.730469 Z M 264.359375 51.480469 " clip-rule="nonzero"/></clipPath></defs><g fill="#000000" fill-opacity="1"><g transform="translate(7.972089, 120.362897)"><g><path d="M 32.765625 1.140625 C 27.015625 1.140625 21.34375 0.484375 15.75 -0.828125 C 10.15625 -2.140625 5.664062 -3.851562 2.28125 -5.96875 L 9.53125 -22.484375 C 12.65625 -20.535156 16.378906 -18.988281 20.703125 -17.84375 C 25.023438 -16.695312 29.300781 -16.125 33.53125 -16.125 C 37.425781 -16.125 40.195312 -16.523438 41.84375 -17.328125 C 43.5 -18.140625 44.328125 -19.304688 44.328125 -20.828125 C 44.328125 -22.347656 43.332031 -23.425781 41.34375 -24.0625 C 39.351562 -24.695312 36.195312 -25.3125 31.875 -25.90625 C 26.375 -26.582031 21.695312 -27.472656 17.84375 -28.578125 C 13.988281 -29.679688 10.664062 -31.710938 7.875 -34.671875 C 5.082031 -37.640625 3.6875 -41.789062 3.6875 -47.125 C 3.6875 -51.53125 5 -55.445312 7.625 -58.875 C 10.25 -62.300781 14.078125 -65.007812 19.109375 -67 C 24.148438 -68.988281 30.1875 -69.984375 37.21875 -69.984375 C 42.207031 -69.984375 47.15625 -69.472656 52.0625 -68.453125 C 56.976562 -67.441406 61.085938 -66.003906 64.390625 -64.140625 L 57.15625 -47.765625 C 51.0625 -51.148438 44.457031 -52.84375 37.34375 -52.84375 C 33.53125 -52.84375 30.734375 -52.394531 28.953125 -51.5 C 27.179688 -50.613281 26.296875 -49.453125 26.296875 -48.015625 C 26.296875 -46.398438 27.269531 -45.273438 29.21875 -44.640625 C 31.164062 -44.003906 34.378906 -43.347656 38.859375 -42.671875 C 44.535156 -41.828125 49.234375 -40.851562 52.953125 -39.75 C 56.679688 -38.65625 59.921875 -36.644531 62.671875 -33.71875 C 65.429688 -30.800781 66.8125 -26.71875 66.8125 -21.46875 C 66.8125 -17.144531 65.5 -13.269531 62.875 -9.84375 C 60.25 -6.414062 56.375 -3.726562 51.25 -1.78125 C 46.125 0.164062 39.960938 1.140625 32.765625 1.140625 Z M 32.765625 1.140625 "/></g></g></g><g fill="#000000" fill-opacity="1"><g transform="translate(64.49435, 120.362897)"><g><path d="M 7.75 -68.84375 L 31.875 -68.84375 L 31.875 0 L 7.75 0 Z M 19.8125 -76.46875 C 15.414062 -76.46875 11.859375 -77.691406 9.140625 -80.140625 C 6.429688 -82.597656 5.078125 -85.648438 5.078125 -89.296875 C 5.078125 -92.929688 6.429688 -95.976562 9.140625 -98.4375 C 11.859375 -100.894531 15.414062 -102.125 19.8125 -102.125 C 24.21875 -102.125 27.773438 -100.957031 30.484375 -98.625 C 33.191406 -96.300781 34.546875 -93.316406 34.546875 -89.671875 C 34.546875 -85.859375 33.191406 -82.703125 30.484375 -80.203125 C 27.773438 -77.710938 24.21875 -76.46875 19.8125 -76.46875 Z M 19.8125 -76.46875 "/></g></g></g><g fill="#000000" fill-opacity="1"><g transform="translate(91.294784, 120.362897)"><g><path d="M 55.25 -2.796875 C 53.21875 -1.523438 50.738281 -0.550781 47.8125 0.125 C 44.894531 0.800781 41.785156 1.140625 38.484375 1.140625 C 29.503906 1.140625 22.601562 -1.054688 17.78125 -5.453125 C 12.957031 -9.859375 10.546875 -16.425781 10.546875 -25.15625 L 10.546875 -48.265625 L 0.515625 -48.265625 L 0.515625 -66.296875 L 10.546875 -66.296875 L 10.546875 -84.21875 L 34.671875 -84.21875 L 34.671875 -66.296875 L 50.421875 -66.296875 L 50.421875 -48.265625 L 34.671875 -48.265625 L 34.671875 -25.40625 C 34.671875 -22.945312 35.328125 -21.019531 36.640625 -19.625 C 37.953125 -18.226562 39.710938 -17.53125 41.921875 -17.53125 C 44.710938 -17.53125 47.164062 -18.25 49.28125 -19.6875 Z M 55.25 -2.796875 "/></g></g></g><g fill="#000000" fill-opacity="1"><g transform="translate(135.115396, 120.362897)"><g><path d="M 78.109375 -34.296875 C 78.109375 -34.128906 77.984375 -32.140625 77.734375 -28.328125 L 27.6875 -28.328125 C 28.707031 -24.765625 30.675781 -22.03125 33.59375 -20.125 C 36.519531 -18.226562 40.179688 -17.28125 44.578125 -17.28125 C 47.878906 -17.28125 50.738281 -17.742188 53.15625 -18.671875 C 55.570312 -19.597656 58.003906 -21.125 60.453125 -23.25 L 73.15625 -10.03125 C 66.46875 -2.582031 56.691406 1.140625 43.828125 1.140625 C 35.773438 1.140625 28.703125 -0.378906 22.609375 -3.421875 C 16.515625 -6.472656 11.789062 -10.707031 8.4375 -16.125 C 5.09375 -21.550781 3.421875 -27.691406 3.421875 -34.546875 C 3.421875 -41.316406 5.050781 -47.390625 8.3125 -52.765625 C 11.570312 -58.148438 16.082031 -62.363281 21.84375 -65.40625 C 27.601562 -68.457031 34.082031 -69.984375 41.28125 -69.984375 C 48.132812 -69.984375 54.351562 -68.5625 59.9375 -65.71875 C 65.53125 -62.882812 69.957031 -58.78125 73.21875 -53.40625 C 76.476562 -48.03125 78.109375 -41.660156 78.109375 -34.296875 Z M 41.40625 -52.84375 C 37.675781 -52.84375 34.5625 -51.78125 32.0625 -49.65625 C 29.570312 -47.539062 27.988281 -44.664062 27.3125 -41.03125 L 55.5 -41.03125 C 54.820312 -44.664062 53.234375 -47.539062 50.734375 -49.65625 C 48.242188 -51.78125 45.132812 -52.84375 41.40625 -52.84375 Z M 41.40625 -52.84375 "/></g></g></g><g fill="#000000" fill-opacity="1"><g transform="translate(203.704206, 120.362897)"><g><path d="M 80.140625 -68.84375 L 80.140625 0 L 57.15625 0 L 57.15625 -7.359375 C 54.613281 -4.566406 51.5625 -2.453125 48 -1.015625 C 44.445312 0.421875 40.679688 1.140625 36.703125 1.140625 C 27.816406 1.140625 20.726562 -1.484375 15.4375 -6.734375 C 10.144531 -11.984375 7.5 -19.859375 7.5 -30.359375 L 7.5 -68.84375 L 31.625 -68.84375 L 31.625 -34.296875 C 31.625 -29.128906 32.597656 -25.359375 34.546875 -22.984375 C 36.492188 -20.617188 39.332031 -19.4375 43.0625 -19.4375 C 46.875 -19.4375 49.984375 -20.769531 52.390625 -23.4375 C 54.804688 -26.101562 56.015625 -30.1875 56.015625 -35.6875 L 56.015625 -68.84375 Z M 80.140625 -68.84375 "/></g></g></g><g fill="#000000" fill-opacity="1"><g transform="translate(278.643853, 120.362897)"><g><path d="M 51.0625 -69.984375 C 57.320312 -69.984375 63.015625 -68.519531 68.140625 -65.59375 C 73.265625 -62.675781 77.328125 -58.53125 80.328125 -53.15625 C 83.335938 -47.78125 84.84375 -41.535156 84.84375 -34.421875 C 84.84375 -27.304688 83.335938 -21.0625 80.328125 -15.6875 C 77.328125 -10.3125 73.265625 -6.160156 68.140625 -3.234375 C 63.015625 -0.316406 57.320312 1.140625 51.0625 1.140625 C 43.019531 1.140625 36.625 -1.269531 31.875 -6.09375 L 31.875 24.640625 L 7.75 24.640625 L 7.75 -68.84375 L 30.734375 -68.84375 L 30.734375 -61.984375 C 35.222656 -67.316406 42 -69.984375 51.0625 -69.984375 Z M 45.984375 -18.03125 C 50.210938 -18.03125 53.679688 -19.488281 56.390625 -22.40625 C 59.097656 -25.332031 60.453125 -29.335938 60.453125 -34.421875 C 60.453125 -39.503906 59.097656 -43.503906 56.390625 -46.421875 C 53.679688 -49.347656 50.210938 -50.8125 45.984375 -50.8125 C 41.742188 -50.8125 38.269531 -49.347656 35.5625 -46.421875 C 32.851562 -43.503906 31.5 -39.503906 31.5 -34.421875 C 31.5 -29.335938 32.851562 -25.332031 35.5625 -22.40625 C 38.269531 -19.488281 41.742188 -18.03125 45.984375 -18.03125 Z M 45.984375 -18.03125 "/></g></g></g><g clip-path="url(#ff2f6c5760)"><path fill="#ffffff" d="M 281.609375 51.480469 L 299.148438 51.480469 L 285.238281 75.046875 L 295.519531 75.046875 L 264.375 119.824219 L 278.285156 85.09375 L 267.097656 85.648438 Z M 281.609375 51.480469 " fill-opacity="1" fill-rule="nonzero"/></g><g clip-path="url(#ef1239eb7b)"><path fill="#ffffff" d="M 281.609375 51.480469 L 284.632812 51.480469 L 267.097656 85.648438 Z M 264.375 119.824219 L 280.402344 85.09375 L 278.285156 85.09375 Z M 264.375 119.824219 " fill-opacity="1" fill-rule="nonzero"/></g></svg>