<svg xmlns="http://www.w3.org/2000/svg" xmlns:xlink="http://www.w3.org/1999/xlink" width="500" zoomAndPan="magnify" viewBox="0 0 375 374.999991" height="500" preserveAspectRatio="xMidYMid meet" version="1.0"><defs><clipPath id="fa4831f248"><path d="M 187.5 0 C 83.945312 0 0 83.945312 0 187.5 C 0 291.054688 83.945312 375 187.5 375 C 291.054688 375 375 291.054688 375 187.5 C 375 83.945312 291.054688 0 187.5 0 Z M 187.5 0 " clip-rule="nonzero"/></clipPath><clipPath id="398b1bb0be"><path d="M 117.421875 49.851562 L 257.671875 49.851562 L 257.671875 325.101562 L 117.421875 325.101562 Z M 117.421875 49.851562 " clip-rule="nonzero"/></clipPath><clipPath id="be500be79c"><path d="M 117.421875 49.851562 L 200 49.851562 L 200 325.101562 L 117.421875 325.101562 Z M 117.421875 49.851562 " clip-rule="nonzero"/></clipPath></defs><g clip-path="url(#fa4831f248)"><rect x="-37.5" width="450" fill="#000000" y="-37.499999" height="449.999989" fill-opacity="1"/></g><g clip-path="url(#398b1bb0be)"><path fill="#ffffff" d="M 186.898438 49.851562 L 257.546875 49.851562 L 201.519531 144.785156 L 242.929688 144.785156 L 117.472656 325.148438 L 173.503906 185.257812 L 128.4375 187.488281 Z M 186.898438 49.851562 " fill-opacity="1" fill-rule="nonzero"/></g><g clip-path="url(#be500be79c)"><path fill="#ffffff" d="M 186.898438 49.851562 L 199.082031 49.851562 L 128.4375 187.488281 Z M 117.472656 325.148438 L 182.03125 185.257812 L 173.503906 185.257812 Z M 117.472656 325.148438 " fill-opacity="1" fill-rule="nonzero"/></g></svg>