<svg xmlns="http://www.w3.org/2000/svg" xmlns:xlink="http://www.w3.org/1999/xlink" width="440" zoomAndPan="magnify" viewBox="0 0 330 76.499998" height="102" preserveAspectRatio="xMidYMid meet" version="1.0"><defs><g/><clipPath id="4ab3a7ce29"><path d="M 270 28 L 328.925781 28 L 328.925781 62 L 270 62 Z M 270 28 " clip-rule="nonzero"/></clipPath><clipPath id="0122527f52"><path d="M 36.292969 15.539062 L 61.242188 15.539062 L 61.242188 40.488281 L 36.292969 40.488281 Z M 36.292969 15.539062 " clip-rule="nonzero"/></clipPath><clipPath id="b6bb1df80f"><path d="M 1.070312 26.667969 L 9.671875 26.667969 L 9.671875 40.488281 L 1.070312 40.488281 Z M 1.070312 26.667969 " clip-rule="nonzero"/></clipPath><clipPath id="2e4fd37d60"><path d="M 61.238281 1.867188 L 85.738281 1.867188 L 85.738281 15.542969 L 61.238281 15.542969 Z M 61.238281 1.867188 " clip-rule="nonzero"/></clipPath><clipPath id="7bfa8bbb19"><path d="M 20.804688 0.0546875 L 36.292969 0.0546875 L 36.292969 15.542969 L 20.804688 15.542969 Z M 20.804688 0.0546875 " clip-rule="nonzero"/></clipPath><clipPath id="8c71ef324c"><path d="M 20.804688 26.675781 L 28.546875 26.675781 L 28.546875 34.421875 L 20.804688 34.421875 Z M 20.804688 26.675781 " clip-rule="nonzero"/></clipPath><clipPath id="6d9a8fe541"><path d="M 9.671875 0.0546875 L 17.417969 0.0546875 L 17.417969 7.800781 L 9.671875 7.800781 Z M 9.671875 0.0546875 " clip-rule="nonzero"/></clipPath><clipPath id="51865647fd"><path d="M 9.671875 15.539062 L 20.804688 15.539062 L 20.804688 26.667969 L 9.671875 26.667969 Z M 9.671875 15.539062 " clip-rule="nonzero"/></clipPath><clipPath id="8fd5b36e7e"><path d="M 1.929688 7.800781 L 9.671875 7.800781 L 9.671875 15.546875 L 1.929688 15.546875 Z M 1.929688 7.800781 " clip-rule="nonzero"/></clipPath><clipPath id="8652bb9d07"><path d="M 20.804688 40.492188 L 36.292969 40.492188 L 36.292969 55.984375 L 20.804688 55.984375 Z M 20.804688 40.492188 " clip-rule="nonzero"/></clipPath></defs><g fill="#ffffff" fill-opacity="1"><g transform="translate(59.330697, 61.275252)"><g><path d="M 23.8125 -43.1875 C 27.644531 -43.1875 30.96875 -42.546875 33.78125 -41.265625 C 36.601562 -39.992188 38.773438 -38.1875 40.296875 -35.84375 C 41.816406 -33.5 42.578125 -30.722656 42.578125 -27.515625 C 42.578125 -24.347656 41.816406 -21.582031 40.296875 -19.21875 C 38.773438 -16.851562 36.601562 -15.039062 33.78125 -13.78125 C 30.96875 -12.53125 27.644531 -11.90625 23.8125 -11.90625 L 15.125 -11.90625 L 15.125 0 L 5.125 0 L 5.125 -43.1875 Z M 23.265625 -20.046875 C 26.265625 -20.046875 28.546875 -20.691406 30.109375 -21.984375 C 31.671875 -23.285156 32.453125 -25.128906 32.453125 -27.515625 C 32.453125 -29.941406 31.671875 -31.800781 30.109375 -33.09375 C 28.546875 -34.394531 26.265625 -35.046875 23.265625 -35.046875 L 15.125 -35.046875 L 15.125 -20.046875 Z M 23.265625 -20.046875 "/></g></g></g><g fill="#ffffff" fill-opacity="1"><g transform="translate(98.874969, 61.275252)"><g><path d="M 4.4375 -33.203125 L 14.0625 -33.203125 L 14.0625 0 L 4.4375 0 Z M 9.25 -37.828125 C 7.476562 -37.828125 6.035156 -38.335938 4.921875 -39.359375 C 3.816406 -40.390625 3.265625 -41.664062 3.265625 -43.1875 C 3.265625 -44.707031 3.816406 -45.984375 4.921875 -47.015625 C 6.035156 -48.046875 7.476562 -48.5625 9.25 -48.5625 C 11.019531 -48.5625 12.457031 -48.066406 13.5625 -47.078125 C 14.675781 -46.085938 15.234375 -44.851562 15.234375 -43.375 C 15.234375 -41.769531 14.675781 -40.441406 13.5625 -39.390625 C 12.457031 -38.347656 11.019531 -37.828125 9.25 -37.828125 Z M 9.25 -37.828125 "/></g></g></g><g fill="#ffffff" fill-opacity="1"><g transform="translate(111.829234, 61.275252)"><g><path d="M 25.546875 0 L 18.265625 -10.1875 L 10.734375 0 L 0.25 0 L 13.015625 -16.71875 L 0.671875 -33.203125 L 11.484375 -33.203125 L 18.515625 -23.515625 L 25.734375 -33.203125 L 35.96875 -33.203125 L 23.625 -16.96875 L 36.46875 0 Z M 25.546875 0 "/></g></g></g><g fill="#ffffff" fill-opacity="1"><g transform="translate(142.921461, 61.275252)"><g><path d="M 36.953125 -16.46875 C 36.953125 -16.351562 36.894531 -15.492188 36.78125 -13.890625 L 11.65625 -13.890625 C 12.113281 -11.828125 13.1875 -10.195312 14.875 -9 C 16.5625 -7.8125 18.660156 -7.21875 21.171875 -7.21875 C 22.890625 -7.21875 24.414062 -7.472656 25.75 -7.984375 C 27.09375 -8.503906 28.34375 -9.316406 29.5 -10.421875 L 34.609375 -4.875 C 31.484375 -1.289062 26.921875 0.5 20.921875 0.5 C 17.171875 0.5 13.851562 -0.226562 10.96875 -1.6875 C 8.09375 -3.15625 5.875 -5.179688 4.3125 -7.765625 C 2.75 -10.359375 1.96875 -13.300781 1.96875 -16.59375 C 1.96875 -19.84375 2.738281 -22.773438 4.28125 -25.390625 C 5.832031 -28.003906 7.953125 -30.039062 10.640625 -31.5 C 13.335938 -32.957031 16.351562 -33.6875 19.6875 -33.6875 C 22.9375 -33.6875 25.875 -32.988281 28.5 -31.59375 C 31.132812 -30.195312 33.203125 -28.191406 34.703125 -25.578125 C 36.203125 -22.960938 36.953125 -19.925781 36.953125 -16.46875 Z M 19.75 -26.40625 C 17.5625 -26.40625 15.726562 -25.785156 14.25 -24.546875 C 12.769531 -23.316406 11.863281 -21.632812 11.53125 -19.5 L 27.890625 -19.5 C 27.554688 -21.59375 26.648438 -23.265625 25.171875 -24.515625 C 23.691406 -25.773438 21.882812 -26.40625 19.75 -26.40625 Z M 19.75 -26.40625 "/></g></g></g><g fill="#ffffff" fill-opacity="1"><g transform="translate(176.234654, 61.275252)"><g><path d="M 4.4375 -45.78125 L 14.0625 -45.78125 L 14.0625 0 L 4.4375 0 Z M 4.4375 -45.78125 "/></g></g></g><g fill="#ffffff" fill-opacity="1"><g transform="translate(189.188916, 61.275252)"><g><path d="M 15.125 -35.171875 L 15.125 -23.75 L 35.109375 -23.75 L 35.109375 -15.734375 L 15.125 -15.734375 L 15.125 0 L 5.125 0 L 5.125 -43.1875 L 37.765625 -43.1875 L 37.765625 -35.171875 Z M 15.125 -35.171875 "/></g></g></g><g fill="#ffffff" fill-opacity="1"><g transform="translate(222.995662, 61.275252)"><g><path d="M 4.4375 -45.78125 L 14.0625 -45.78125 L 14.0625 0 L 4.4375 0 Z M 4.4375 -45.78125 "/></g></g></g><g fill="#ffffff" fill-opacity="1"><g transform="translate(235.949924, 61.275252)"><g><path d="M 20.234375 0.5 C 16.742188 0.5 13.609375 -0.226562 10.828125 -1.6875 C 8.046875 -3.15625 5.875 -5.179688 4.3125 -7.765625 C 2.75 -10.359375 1.96875 -13.300781 1.96875 -16.59375 C 1.96875 -19.882812 2.75 -22.828125 4.3125 -25.421875 C 5.875 -28.015625 8.046875 -30.039062 10.828125 -31.5 C 13.609375 -32.957031 16.742188 -33.6875 20.234375 -33.6875 C 23.734375 -33.6875 26.859375 -32.957031 29.609375 -31.5 C 32.367188 -30.039062 34.53125 -28.015625 36.09375 -25.421875 C 37.65625 -22.828125 38.4375 -19.882812 38.4375 -16.59375 C 38.4375 -13.300781 37.65625 -10.359375 36.09375 -7.765625 C 34.53125 -5.179688 32.367188 -3.15625 29.609375 -1.6875 C 26.859375 -0.226562 23.734375 0.5 20.234375 0.5 Z M 20.234375 -7.40625 C 22.703125 -7.40625 24.726562 -8.238281 26.3125 -9.90625 C 27.894531 -11.570312 28.6875 -13.800781 28.6875 -16.59375 C 28.6875 -19.394531 27.894531 -21.628906 26.3125 -23.296875 C 24.726562 -24.960938 22.703125 -25.796875 20.234375 -25.796875 C 17.765625 -25.796875 15.726562 -24.960938 14.125 -23.296875 C 12.519531 -21.628906 11.71875 -19.394531 11.71875 -16.59375 C 11.71875 -13.800781 12.519531 -11.570312 14.125 -9.90625 C 15.726562 -8.238281 17.765625 -7.40625 20.234375 -7.40625 Z M 20.234375 -7.40625 "/></g></g></g><g clip-path="url(#4ab3a7ce29)"><g fill="#ffffff" fill-opacity="1"><g transform="translate(270.743779, 61.275252)"><g><path d="M 57.75 -33.203125 L 45.71875 0 L 36.46875 0 L 29 -20.609375 L 21.28125 0 L 12.03125 0 L 0.0625 -33.203125 L 9.125 -33.203125 L 16.96875 -10.734375 L 25.109375 -33.203125 L 33.265625 -33.203125 L 41.15625 -10.734375 L 49.234375 -33.203125 Z M 57.75 -33.203125 "/></g></g></g></g><g clip-path="url(#0122527f52)"><path fill="#ffffff" d="M 36.292969 40.488281 L 36.292969 15.539062 L 61.242188 15.539062 L 61.242188 40.488281 Z M 36.292969 40.488281 " fill-opacity="1" fill-rule="nonzero"/></g><g clip-path="url(#b6bb1df80f)"><path fill="#ffffff" d="M 1.070312 40.488281 L 1.070312 26.675781 L 9.671875 26.675781 L 9.671875 40.488281 Z M 1.070312 40.488281 " fill-opacity="1" fill-rule="nonzero"/></g><g clip-path="url(#2e4fd37d60)"><path fill="#ffffff" d="M 61.238281 15.542969 L 61.238281 1.867188 L 85.761719 1.867188 L 85.761719 15.542969 Z M 61.238281 15.542969 " fill-opacity="1" fill-rule="nonzero"/></g><g clip-path="url(#7bfa8bbb19)"><path fill="#ffffff" d="M 20.804688 15.542969 L 20.804688 0.0546875 L 36.292969 0.0546875 L 36.292969 15.542969 Z M 20.804688 15.542969 " fill-opacity="1" fill-rule="nonzero"/></g><g clip-path="url(#8c71ef324c)"><path fill="#ffffff" d="M 20.804688 34.421875 L 20.804688 26.675781 L 28.546875 26.675781 L 28.546875 34.421875 Z M 20.804688 34.421875 " fill-opacity="1" fill-rule="nonzero"/></g><g clip-path="url(#6d9a8fe541)"><path fill="#ffffff" d="M 9.671875 7.800781 L 9.671875 0.0546875 L 17.417969 0.0546875 L 17.417969 7.800781 Z M 9.671875 7.800781 " fill-opacity="1" fill-rule="nonzero"/></g><g clip-path="url(#51865647fd)"><path fill="#ffffff" d="M 9.671875 26.667969 L 9.671875 15.539062 L 20.804688 15.539062 L 20.804688 26.667969 Z M 9.671875 26.667969 " fill-opacity="1" fill-rule="nonzero"/></g><g clip-path="url(#8fd5b36e7e)"><path fill="#ffffff" d="M 1.929688 15.546875 L 1.929688 7.800781 L 9.671875 7.800781 L 9.671875 15.546875 Z M 1.929688 15.546875 " fill-opacity="1" fill-rule="nonzero"/></g><g clip-path="url(#8652bb9d07)"><path fill="#ffffff" d="M 20.804688 55.984375 L 20.804688 40.492188 L 36.292969 40.492188 L 36.292969 55.984375 Z M 20.804688 55.984375 " fill-opacity="1" fill-rule="nonzero"/></g></svg>